<svg width="43" height="41" viewBox="0 0 43 41" fill="none" xmlns="http://www.w3.org/2000/svg">
<path d="M40.7974 0.494995H1.32889C0.595017 0.494995 0 1.09001 0 1.82389V6.27566C0 7.00954 0.595017 7.60456 1.32889 7.60456H4.38539V28.2026C4.38539 28.9365 4.98041 29.5315 5.71429 29.5315H19.7343V33.7129C18.4495 34.2386 17.5416 35.5015 17.5416 36.9734C17.5416 38.9152 19.1214 40.495 21.0632 40.495C23.0049 40.495 24.5847 38.9152 24.5847 36.9734C24.5847 35.5017 23.6768 34.2386 22.3921 33.7129V29.5315H36.412C37.1459 29.5315 37.7409 28.9365 37.7409 28.2026V7.6047H40.7974C41.5313 7.6047 42.1263 7.00968 42.1263 6.2758V1.82389C42.1263 1.09001 41.5313 0.494995 40.7974 0.494995ZM21.0632 37.8373C20.5869 37.8373 20.1994 37.4498 20.1994 36.9735C20.1994 36.4972 20.5869 36.1097 21.0632 36.1097C21.5395 36.1097 21.927 36.4972 21.927 36.9735C21.927 37.4497 21.5395 37.8373 21.0632 37.8373ZM35.0831 26.8739H7.04318V7.6047H35.0831V26.8739ZM2.65779 4.94691V3.15278H39.4685V4.94677H2.65779V4.94691Z" />
</svg>
